<?xml version="1.0" ?><svg id="Capa_1" style="enable-background:new 0 0 512 512;" version="1.1" viewBox="0 0 512 512" xml:space="preserve" xmlns="http://www.w3.org/2000/svg" xmlns:xlink="http://www.w3.org/1999/xlink"><path d="M502,70v286c0,11.05-8.95,20-20,20c-33.775,0-435.025,0-452,0c-11.05,0-20-8.95-20-20V70  c0-11.05,8.95-20,20-20h186c0-22.09,17.91-40,40-40s40,17.91,40,40h186C493.05,50,502,58.95,502,70z" style="fill:#4DBBEB;"/><path d="M459,93v243H53V93H459z" style="fill:#C0E3F0;"/><g><path d="M433.15,471.71c5.68,9.47,2.62,21.75-6.86,27.44c-3.22,1.93-6.77,2.85-10.27,2.85   c-6.8,0-13.42-3.46-17.17-9.71L332.68,376h46.64L433.15,471.71z" style="fill:#57555C;"/><path d="M276,376v106c0,11.05-8.95,20-20,20c-11.05,0-20-8.95-20-20V376H276z" style="fill:#57555C;"/><path d="M178.39,376l-65.18,116.19c-3.73,6.3-10.39,9.81-17.23,9.81c-3.46,0-6.97-0.9-10.16-2.78   c-9.51-5.63-12.65-17.89-7.03-27.41L131.93,376H178.39z" style="fill:#57555C;"/></g><path d="M116,166c5.52,0,10-4.48,10-10s-4.48-10-10-10s-10,4.48-10,10S110.48,166,116,166z"/><path d="M376,246c-4.272,0-8.885-2.687-12.985-7.564c-3.554-4.229-9.862-4.774-14.089-1.22c-4.228,3.554-4.773,9.861-1.22,14.089  c5.346,6.36,11.632,10.791,18.294,13.025V276c0,5.522,4.478,10,10,10s10-4.478,10-10v-11.72c11.639-4.128,20-15.243,20-28.28  c0-16.542-13.458-30-30-30c-5.514,0-10-4.486-10-10s4.486-10,10-10c3.542,0,7.282,1.808,10.815,5.227  c3.971,3.841,10.3,3.736,14.141-0.232c3.84-3.969,3.736-10.3-0.232-14.141c-5.075-4.911-10.153-7.689-14.724-9.205V156  c0-5.522-4.478-10-10-10s-10,4.478-10,10v11.72c-11.639,4.128-20,15.243-20,28.28c0,16.542,13.458,30,30,30c5.514,0,10,4.486,10,10  S381.514,246,376,246z"/><path d="M482,40H304.995C300.35,17.206,280.146,0,256,0s-44.35,17.206-48.995,40H30C13.458,40,0,53.458,0,70v286  c0,16.542,13.458,30,30,30h84.948l-44.844,80.854c-8.304,14.225-3.559,32.577,10.639,40.981C85.366,510.56,90.635,512,95.98,512  c10.562,0,20.461-5.639,25.835-14.716c0.039-0.066,0.078-0.134,0.116-0.201L184.246,386H226v96c0,16.542,13.458,30,30,30  s30-13.458,30-30v-96h40.865l63.294,111.235c0.038,0.067,0.077,0.134,0.116,0.199C395.665,506.419,405.53,512,416.02,512  c5.419,0,10.748-1.478,15.417-4.275c14.136-8.486,18.767-26.861,10.368-41.026L396.418,386H482c16.542,0,30-13.458,30-30V70  C512,53.458,498.542,40,482,40z M104.556,487.179c-1.827,3.02-5.026,4.821-8.576,4.821c-1.776,0-3.534-0.482-5.066-1.386  c-4.745-2.809-6.32-8.964-3.513-13.721c0.046-0.077,0.09-0.155,0.134-0.233L137.819,386h23.495L104.556,487.179z M266,482  c0,5.514-4.486,10-10,10s-10-4.486-10-10v-96h20V482z M424.435,476.612c0.046,0.081,0.092,0.161,0.14,0.241  c2.837,4.729,1.297,10.885-3.425,13.72c-1.558,0.934-3.332,1.427-5.13,1.427c-3.525,0-6.713-1.782-8.545-4.772L349.875,386h23.597  L424.435,476.612z M492,356c0,5.514-4.486,10-10,10c-1.219,0-438.919,0-452,0c-5.514,0-10-4.486-10-10V70c0-5.514,4.486-10,10-10  h186c5.522,0,10-4.478,10-10c0-16.542,13.458-30,30-30s30,13.458,30,30c0,5.522,4.478,10,10,10h186c5.514,0,10,4.486,10,10V356z"/><path d="M459,83H53c-5.522,0-10,4.478-10,10v243c0,5.522,4.478,10,10,10h406c5.522,0,10-4.478,10-10V93  C469,87.478,464.522,83,459,83z M449,326H63V103h386V326z"/><path d="M156,166h140c5.522,0,10-4.478,10-10s-4.478-10-10-10H156c-5.522,0-10,4.478-10,10S150.478,166,156,166z"/><path d="M116,226h180c5.522,0,10-4.478,10-10s-4.478-10-10-10H116c-5.522,0-10,4.478-10,10S110.478,226,116,226z"/><path d="M116,286h180c5.522,0,10-4.478,10-10s-4.478-10-10-10H116c-5.522,0-10,4.478-10,10S110.478,286,116,286z"/><g/><g/><g/><g/><g/><g/><g/><g/><g/><g/><g/><g/><g/><g/><g/></svg>